<svg id="Layer_1" data-name="Layer 1" xmlns="http://www.w3.org/2000/svg" viewBox="0 0 196.67 194.42"><path d="M51.67,142.54v13.8a3.17,3.17,0,0,0,1.2,2.49l1.93,1.53a3.2,3.2,0,0,0,2,.68h148.9v0a3.18,3.18,0,0,1-.93,2.24l-66.31,66.31a3.16,3.16,0,0,0-.93,2.24v2.71a3.14,3.14,0,0,0,.93,2.24l9.48,9.48a3.18,3.18,0,0,0,2.24.93H152a3.18,3.18,0,0,0,2.24-.93l93.15-93.14a3.19,3.19,0,0,0,.92-2.24V150a3.17,3.17,0,0,0-.92-2.24L153.34,53.72a3.18,3.18,0,0,0-2.24-.93H150a3.18,3.18,0,0,0-2.24.93l-9.85,9.85a3.16,3.16,0,0,0-.93,2.24v1.92a3.14,3.14,0,0,0,.93,2.24l66.66,66.66a3.16,3.16,0,0,1,.93,2.24H55.68a3.14,3.14,0,0,0-1.58.42l-.85.49A3.17,3.17,0,0,0,51.67,142.54Z" transform="translate(-51.67 -52.79)"/></svg>